<svg version="1.1" id="Layer_1" xmlns="http://www.w3.org/2000/svg" xmlns:xlink="http://www.w3.org/1999/xlink" x="0px" y="0px"
	 width="100%" viewBox="0 0 1654 912" enable-background="new 0 0 1654 912" xml:space="preserve">
<path fill="#FFFFFF" opacity="1.000000" stroke="none" 
	d="
M990.000000,913.000000 
	C660.000000,913.000000 330.500000,913.000000 1.000000,913.000000 
	C1.000000,609.000000 1.000000,305.000000 1.000000,1.000000 
	C552.333313,1.000000 1103.666626,1.000000 1655.000000,1.000000 
	C1655.000000,305.000000 1655.000000,609.000000 1655.000000,913.000000 
	C1433.500000,913.000000 1212.000000,913.000000 990.000000,913.000000 
M527.095398,383.036591 
	C527.294067,383.190094 527.492798,383.343597 527.517273,384.201355 
	C510.686340,418.524261 493.978241,452.908691 476.857025,487.086212 
	C474.887482,491.017853 471.104675,494.550720 467.336426,496.994720 
	C416.986786,529.651123 370.734070,567.421387 327.431824,608.850525 
	C279.542511,654.668274 234.658936,703.136658 197.815277,758.526794 
	C182.554672,781.469360 169.654938,805.665222 161.543884,832.099243 
	C157.645905,844.802795 154.110382,857.757385 156.983124,871.350586 
	C159.275650,882.198364 165.451492,888.542725 176.020386,888.184937 
	C182.741653,887.957397 189.968643,886.075012 195.926865,882.948730 
	C215.345825,872.759705 232.466156,859.238159 248.282211,844.056152 
	C307.521759,787.191162 357.676910,723.159363 399.917908,652.791870 
	C428.536652,605.117065 453.218842,555.375244 478.094055,505.726898 
	C480.953766,500.019165 484.684937,495.497284 490.276367,492.333344 
	C515.602600,478.002533 540.739990,463.332092 566.215698,449.273865 
	C577.110535,443.261871 588.691040,438.498901 599.901978,433.049072 
	C602.872314,431.605072 606.622498,429.864685 604.705811,425.691895 
	C602.893433,421.746368 599.194092,422.774841 595.998840,424.198700 
	C592.660156,425.686493 589.326355,427.220886 586.130920,428.988953 
	C555.279236,446.059418 524.458313,463.185638 493.619507,480.279388 
	C492.866516,480.696777 492.007874,480.923523 490.286011,481.594971 
	C491.239868,479.316193 491.714508,477.943268 492.366486,476.660431 
	C502.687500,456.353333 513.156555,436.120270 523.327393,415.738403 
	C530.526123,401.312500 537.379822,386.713135 544.274048,372.137543 
	C546.152344,368.166595 546.089050,363.978271 542.110962,361.426514 
	C538.401611,359.047150 535.242432,361.497742 532.339294,363.990631 
	C511.493561,381.890503 490.926239,400.133514 469.647827,417.504761 
	C451.088287,432.656403 431.727478,446.827606 412.673584,461.370270 
	C411.285919,462.429352 409.514740,462.985992 407.921875,463.776276 
	C408.770508,460.017822 409.980652,457.038361 411.817688,454.515350 
	C421.705750,440.934845 431.745941,427.465027 441.742371,413.963501 
	C443.925964,411.014252 445.933105,407.890869 450.587799,409.602386 
	C451.531036,409.949219 453.350433,409.184570 454.187866,408.351349 
	C462.680389,399.902191 469.665222,390.394958 472.072266,378.427612 
	C472.585419,375.876434 471.289062,371.247559 469.464508,370.352783 
	C466.905212,369.097687 462.400757,369.371613 459.932526,370.915985 
	C455.805878,373.498077 452.139648,377.225189 449.145050,381.133423 
	C438.612885,394.878906 428.515533,408.956940 418.071289,422.771210 
	C416.569580,424.757477 414.289581,426.795807 411.991577,427.421814 
	C404.485657,429.466614 396.876801,431.530975 389.174927,432.368195 
	C376.752167,433.718536 366.805420,426.774414 362.803253,415.765106 
	C361.854340,413.154724 359.234589,409.472748 357.207275,409.356598 
	C354.648285,409.209961 351.215912,411.652954 349.362305,413.949188 
	C339.118500,426.639008 329.261749,439.640808 319.206573,452.484161 
	C318.121094,453.870575 316.611755,454.925110 315.299042,456.133575 
	C314.854584,455.792053 314.410126,455.450531 313.965668,455.108978 
	C316.697876,449.705383 318.687897,443.727539 322.326172,439.024902 
	C328.709930,430.773804 331.424713,421.499451 332.175415,411.501862 
	C332.303802,409.791718 330.230682,407.035828 328.519989,406.313751 
	C326.784180,405.581055 323.873322,406.188690 322.146240,407.274078 
	C320.324097,408.419281 318.978760,410.668488 317.977570,412.706757 
	C315.488190,417.774719 313.422546,423.050354 310.949890,428.127258 
	C310.131653,429.807251 308.897430,431.772156 307.332550,432.527008 
	C287.589661,442.050323 267.808929,451.500549 247.907639,460.687286 
	C240.508514,464.102814 232.485870,464.586151 224.399582,463.883179 
	C216.205795,463.170868 212.221619,458.782227 213.443954,450.630524 
	C215.225098,438.752411 219.891953,428.093170 227.616318,418.676025 
	C231.591339,413.829895 234.767441,408.280182 237.870132,402.802338 
	C238.600479,401.512939 238.121078,398.058807 237.243958,397.650543 
	C235.491241,396.834686 232.935104,396.987915 230.986237,397.607513 
	C229.610306,398.044983 228.516449,399.792847 227.592010,401.156006 
	C222.922501,408.041443 217.645950,414.637848 213.929245,422.014343 
	C209.703506,430.401123 205.954376,439.271606 203.712494,448.354980 
	C200.658478,460.728882 207.664459,470.282684 220.130722,473.115387 
	C229.353058,475.210938 238.385010,473.761414 247.270065,471.383514 
	C263.438690,467.056213 278.471313,460.015717 292.922272,451.650940 
	C296.704529,449.461609 300.636505,447.530945 305.104401,445.160706 
	C303.955597,451.822540 302.467499,457.486633 302.115875,463.220398 
	C301.647095,470.864258 307.050415,474.511169 313.313751,470.337097 
	C319.722473,466.066132 325.671112,460.721954 330.735199,454.902557 
	C339.083496,445.309204 346.557739,434.955292 354.787445,424.426727 
	C367.408295,444.545929 385.813934,445.585052 406.679626,440.246460 
	C405.439941,442.639069 404.713165,443.925537 404.091980,445.261108 
	C401.571289,450.680725 398.892944,456.038239 396.647217,461.570679 
	C395.049805,465.506012 394.192413,469.852539 397.684906,473.268097 
	C401.248901,476.753571 405.629395,476.255524 409.780396,474.329559 
	C413.387146,472.656128 417.159485,471.053223 420.279388,468.663055 
	C441.958313,452.054932 463.714294,435.532928 484.982269,418.407959 
	C499.231018,406.934875 512.718445,394.516296 527.095398,383.036591 
M1140.207397,415.163391 
	C1140.358276,415.272980 1140.509155,415.382538 1140.578613,416.252655 
	C1139.660034,419.789185 1138.568359,423.293640 1137.904419,426.877380 
	C1137.623535,428.393463 1137.647827,430.703278 1138.560791,431.569397 
	C1141.692383,434.540314 1141.077026,438.148499 1141.214355,441.743805 
	C1141.366455,445.730438 1141.402222,449.765900 1142.070435,453.680817 
	C1144.969116,470.665741 1155.158081,479.122894 1170.673462,477.907227 
	C1179.688354,477.200897 1187.864014,474.356018 1195.258057,469.167175 
	C1196.746338,468.122772 1198.372803,467.275299 1199.935547,466.337067 
	C1199.510132,468.889618 1198.425781,470.516693 1197.277466,472.097137 
	C1191.894653,479.505310 1186.464722,486.879547 1181.116333,494.312500 
	C1179.308594,496.824585 1177.710327,499.578827 1180.496582,502.381927 
	C1183.274658,505.176788 1186.226685,503.680511 1188.600342,501.841156 
	C1193.331543,498.174988 1198.029785,494.404724 1202.323608,490.245850 
	C1224.708130,468.564850 1246.792725,446.571838 1269.325684,425.047485 
	C1282.066406,412.876984 1294.665405,400.394684 1310.421753,391.917053 
	C1312.027588,391.053131 1313.821411,390.538666 1316.708008,389.394043 
	C1315.485107,392.524200 1314.863770,394.377594 1314.054443,396.144989 
	C1307.203003,411.108276 1300.210571,426.008087 1293.484741,441.027313 
	C1289.822388,449.205383 1286.333740,457.483765 1283.288208,465.905457 
	C1281.890747,469.769653 1281.213013,474.372040 1285.233032,477.416840 
	C1288.914917,480.205475 1293.253784,479.819122 1297.032471,477.656677 
	C1303.229858,474.110107 1309.531494,470.575684 1315.143555,466.206879 
	C1335.119873,450.656067 1354.747559,434.658081 1374.686279,419.058136 
	C1379.437500,415.340759 1384.883057,412.510712 1391.356445,408.421509 
	C1391.038208,413.068237 1391.144653,416.021881 1390.579102,418.840729 
	C1389.369507,424.870300 1387.850952,430.839600 1386.390137,436.816772 
	C1382.662842,452.067139 1379.620850,467.279114 1381.909790,483.216888 
	C1384.807617,503.395538 1396.697144,510.781525 1414.847412,501.789703 
	C1424.587280,496.964508 1434.188721,491.028168 1442.236206,483.794922 
	C1458.082642,469.552032 1472.826660,454.079926 1487.954468,439.043701 
	C1489.706421,437.302246 1491.697388,435.289520 1492.300903,433.057465 
	C1492.836060,431.077911 1492.228394,428.145020 1490.987305,426.482269 
	C1489.174316,424.053284 1486.918457,425.488586 1485.123657,427.378235 
	C1482.255005,430.398438 1479.355957,433.393738 1476.377075,436.304810 
	C1461.383057,450.958344 1446.781250,466.054657 1431.151978,479.998199 
	C1424.213379,486.188477 1415.464722,490.612854 1407.007446,494.757080 
	C1399.846191,498.266296 1396.242310,496.230194 1393.592285,488.787079 
	C1392.320923,485.216064 1391.466309,481.428375 1390.957764,477.666534 
	C1389.243164,464.983734 1392.911621,452.939850 1395.492798,440.733673 
	C1397.686890,430.357849 1399.988403,419.901825 1400.805420,409.369843 
	C1401.473999,400.750671 1392.932251,396.362213 1385.465942,400.831787 
	C1379.059082,404.667084 1372.628052,408.581757 1366.749634,413.157715 
	C1347.168213,428.400482 1327.882446,444.022552 1308.361206,459.343597 
	C1303.800659,462.922852 1298.757935,465.887726 1293.936890,469.135254 
	C1293.500854,468.712585 1293.064819,468.289886 1292.628784,467.867218 
	C1293.251831,465.718079 1293.620483,463.453156 1294.537598,461.437866 
	C1302.867676,443.133209 1311.341675,424.893951 1319.659302,406.583679 
	C1321.854004,401.751923 1324.297363,396.879669 1325.404785,391.761627 
	C1326.133423,388.394592 1325.753906,383.831818 1323.929077,381.102753 
	C1321.479126,377.438934 1316.680054,378.864807 1313.362915,380.608887 
	C1305.742065,384.615753 1297.612915,388.265991 1291.169556,393.787476 
	C1271.703247,410.468445 1252.945068,427.975464 1233.901001,445.149841 
	C1232.424927,446.481079 1230.874146,447.729431 1229.358032,449.016357 
	C1228.947510,448.666107 1228.537109,448.315826 1228.126709,447.965576 
	C1230.265137,444.560150 1232.338257,441.111572 1234.552856,437.756439 
	C1247.015991,418.875458 1259.487671,400.000000 1272.043823,381.181000 
	C1273.102905,379.593689 1274.661377,378.233765 1276.233276,377.111816 
	C1285.127808,370.763062 1289.293701,361.782806 1290.213745,351.272095 
	C1290.673584,346.020782 1285.725342,343.261017 1281.463623,346.327454 
	C1278.581421,348.401398 1275.959473,351.196136 1274.040771,354.193176 
	C1259.595703,376.756531 1245.414795,399.488892 1231.009644,422.078003 
	C1227.000244,428.365356 1223.256226,435.078644 1218.095215,440.321625 
	C1207.165161,451.425262 1194.469116,460.724152 1179.857422,466.144684 
	C1161.846313,472.826416 1152.476807,466.564514 1151.084961,448.332214 
	C1151.009033,447.337280 1151.055298,446.333130 1151.041748,445.333313 
	C1150.820435,428.971039 1154.480591,413.304840 1159.471802,397.863190 
	C1160.282837,395.354004 1161.108276,392.736359 1161.215698,390.139465 
	C1161.376099,386.266022 1158.503174,384.207458 1154.929565,385.781372 
	C1152.026245,387.060089 1150.102295,386.638580 1147.859375,384.625427 
	C1146.713745,383.597198 1144.908447,383.054596 1143.321411,382.808990 
	C1134.759888,381.483917 1127.257080,384.673920 1120.243774,388.970093 
	C1102.913818,399.585846 1090.967407,415.363281 1079.799194,431.842590 
	C1066.434692,451.563049 1051.461670,469.747437 1030.744263,482.296722 
	C1026.360962,484.951843 1021.906189,487.757782 1017.110046,489.403076 
	C1008.654114,492.303864 1002.986145,487.798676 1002.013367,478.939484 
	C1000.701721,466.993866 1002.131897,455.419952 1004.872864,443.804657 
	C1006.773560,435.750244 1008.175903,427.515381 1008.965027,419.281006 
	C1009.613953,412.510223 1004.787842,409.203033 998.315308,411.354431 
	C995.984619,412.129120 993.708130,413.355835 991.714417,414.800598 
	C986.189087,418.804443 980.515625,422.686218 975.451721,427.230286 
	C953.380371,447.035645 931.527954,467.084808 909.525574,486.967468 
	C907.083130,489.174561 904.191589,490.884613 901.508301,492.825195 
	C901.168823,492.488403 900.829285,492.151611 900.489807,491.814819 
	C901.209656,490.220703 901.756714,488.518494 902.675903,487.049103 
	C912.560974,471.248413 922.416382,455.428009 932.446960,439.719696 
	C988.781128,351.498230 1045.118408,263.278625 1101.553345,175.121597 
	C1117.515137,150.187561 1133.625977,125.344421 1150.008301,100.685516 
	C1162.623169,81.697655 1175.637573,62.969776 1188.785889,44.346233 
	C1191.650757,40.288380 1195.617798,36.896107 1199.488525,33.694515 
	C1202.955811,30.826464 1205.918579,27.506649 1204.518066,23.184509 
	C1203.591553,20.324486 1200.694946,17.311300 1197.914062,16.030397 
	C1193.814209,14.141949 1191.195923,17.776430 1189.156860,20.845675 
	C1171.498413,47.424694 1153.803833,73.980942 1136.358887,100.699944 
	C1129.551514,111.126221 1123.520386,122.056206 1116.853027,132.577545 
	C1046.930542,242.916611 976.930054,353.206207 907.023926,463.555664 
	C901.152405,472.824127 895.749512,482.392700 890.250305,491.892090 
	C888.134949,495.546234 887.018188,499.588501 890.778381,502.803650 
	C894.198120,505.727661 898.300171,505.542633 901.905212,503.021362 
	C908.839233,498.171722 916.009766,493.539642 922.348267,487.980499 
	C945.145203,467.986481 967.610840,447.614990 990.275635,427.469391 
	C993.043579,425.009186 996.260071,423.053741 999.268677,420.864349 
	C999.707886,421.154694 1000.147095,421.445038 1000.586243,421.735382 
	C998.900391,429.835419 997.316101,437.958252 995.505066,446.030182 
	C992.759460,458.267639 990.395081,470.514099 992.977905,483.095917 
	C995.169434,493.771637 1001.331299,499.872131 1011.760132,499.521484 
	C1017.669800,499.322754 1024.429443,497.796234 1029.165649,494.506073 
	C1041.292969,486.081482 1052.538696,476.380157 1064.021973,467.048004 
	C1065.175049,466.110870 1065.543579,464.208252 1066.276245,462.753754 
	C1070.207153,472.585114 1073.820801,474.631012 1081.820801,471.772675 
	C1084.425659,470.841980 1086.856201,469.243958 1089.143677,467.634430 
	C1103.357056,457.633362 1114.223755,444.352509 1125.072144,431.017120 
	C1129.674072,425.360107 1134.867310,420.183990 1140.207397,415.163391 
M889.968323,437.468170 
	C900.756042,426.690460 910.617920,415.273468 915.545349,400.446686 
	C919.469788,388.638184 915.099121,379.263794 903.155518,375.980713 
	C896.872559,374.253632 889.932922,372.971100 883.591980,373.799927 
	C869.948120,375.583313 856.491272,378.820404 842.976318,381.553955 
	C838.344727,382.490753 833.768250,383.700134 827.940186,385.074097 
	C829.320496,382.369019 830.037659,380.919342 830.793274,379.489990 
	C834.986816,371.557526 839.266968,363.669495 843.347046,355.679199 
	C844.766357,352.899780 844.669067,349.441803 841.564087,348.410095 
	C839.437073,347.703369 836.366211,349.013733 834.026672,350.093018 
	C832.716736,350.697357 831.957825,352.619385 831.086731,354.031647 
	C824.625488,364.506805 818.140625,374.968170 811.782715,385.505981 
	C808.076050,391.649567 803.267761,396.222015 796.691101,399.494019 
	C791.584229,402.034760 786.969360,405.852325 782.716370,409.737854 
	C778.672791,413.432129 779.013489,418.536102 783.458496,420.595947 
	C788.093262,422.743805 786.967590,425.458557 785.588318,428.607361 
	C784.656433,430.734619 783.555176,432.799438 782.388489,434.810303 
	C768.452820,458.829651 754.489868,482.833191 740.535706,506.841766 
	C702.855652,571.671326 664.804016,636.294739 631.629089,703.618225 
	C619.140625,728.961731 606.395569,754.204651 598.668823,781.543762 
	C597.145203,786.934814 595.533142,792.614929 595.708740,798.105896 
	C596.061035,809.122498 605.773254,813.443420 614.824036,807.102173 
	C615.854675,806.380127 617.126099,804.426636 616.804504,803.697510 
	C616.241638,802.421448 614.660583,801.227173 613.260315,800.794739 
	C611.951904,800.390686 610.312195,800.952148 608.839478,801.209656 
	C605.544800,801.785645 604.136108,800.304993 604.261902,797.121521 
	C604.327576,795.460999 604.161499,793.701477 604.650879,792.161804 
	C608.515625,780.004150 611.552917,767.470276 616.626221,755.828491 
	C649.227844,681.017029 688.913818,609.899170 730.398987,539.745361 
	C730.918213,538.867432 731.777893,538.190735 732.783264,537.085144 
	C733.182434,543.897522 735.301025,545.465637 741.365234,543.908569 
	C742.633545,543.582947 743.857056,542.966736 745.007568,542.318237 
	C750.365051,539.298523 755.740356,536.305176 761.018127,533.149963 
	C806.981262,505.671814 851.476135,476.206299 889.968323,437.468170 
M261.128326,349.780121 
	C255.963257,352.399445 250.936264,361.895294 251.907761,367.197479 
	C252.556870,370.740021 256.484497,372.374176 258.990814,369.698853 
	C262.117767,366.361084 264.951630,362.594696 267.174255,358.602600 
	C269.969177,353.582581 267.850311,350.423126 261.128326,349.780121 
z"/>
<path fill="#194E94" opacity="1.000000" stroke="none" 
	d="
M1139.791748,414.789307 
	C1134.867310,420.183990 1129.674072,425.360107 1125.072144,431.017120 
	C1114.223755,444.352509 1103.357056,457.633362 1089.143677,467.634430 
	C1086.856201,469.243958 1084.425659,470.841980 1081.820801,471.772675 
	C1073.820801,474.631012 1070.207153,472.585114 1066.276245,462.753754 
	C1065.543579,464.208252 1065.175049,466.110870 1064.021973,467.048004 
	C1052.538696,476.380157 1041.292969,486.081482 1029.165649,494.506073 
	C1024.429443,497.796234 1017.669800,499.322754 1011.760132,499.521484 
	C1001.331299,499.872131 995.169434,493.771637 992.977905,483.095917 
	C990.395081,470.514099 992.759460,458.267639 995.505066,446.030182 
	C997.316101,437.958252 998.900391,429.835419 1000.586243,421.735382 
	C1000.147095,421.445038 999.707886,421.154694 999.268677,420.864349 
	C996.260071,423.053741 993.043579,425.009186 990.275635,427.469391 
	C967.610840,447.614990 945.145203,467.986481 922.348267,487.980499 
	C916.009766,493.539642 908.839233,498.171722 901.905212,503.021362 
	C898.300171,505.542633 894.198120,505.727661 890.778381,502.803650 
	C887.018188,499.588501 888.134949,495.546234 890.250305,491.892090 
	C895.749512,482.392700 901.152405,472.824127 907.023926,463.555664 
	C976.930054,353.206207 1046.930542,242.916611 1116.853027,132.577545 
	C1123.520386,122.056206 1129.551514,111.126221 1136.358887,100.699944 
	C1153.803833,73.980942 1171.498413,47.424694 1189.156860,20.845675 
	C1191.195923,17.776430 1193.814209,14.141949 1197.914062,16.030397 
	C1200.694946,17.311300 1203.591553,20.324486 1204.518066,23.184509 
	C1205.918579,27.506649 1202.955811,30.826464 1199.488525,33.694515 
	C1195.617798,36.896107 1191.650757,40.288380 1188.785889,44.346233 
	C1175.637573,62.969776 1162.623169,81.697655 1150.008301,100.685516 
	C1133.625977,125.344421 1117.515137,150.187561 1101.553345,175.121597 
	C1045.118408,263.278625 988.781128,351.498230 932.446960,439.719696 
	C922.416382,455.428009 912.560974,471.248413 902.675903,487.049103 
	C901.756714,488.518494 901.209656,490.220703 900.489807,491.814819 
	C900.829285,492.151611 901.168823,492.488403 901.508301,492.825195 
	C904.191589,490.884613 907.083130,489.174561 909.525574,486.967468 
	C931.527954,467.084808 953.380371,447.035645 975.451721,427.230286 
	C980.515625,422.686218 986.189087,418.804443 991.714417,414.800598 
	C993.708130,413.355835 995.984619,412.129120 998.315308,411.354431 
	C1004.787842,409.203033 1009.613953,412.510223 1008.965027,419.281006 
	C1008.175903,427.515381 1006.773560,435.750244 1004.872864,443.804657 
	C1002.131897,455.419952 1000.701721,466.993866 1002.013367,478.939484 
	C1002.986145,487.798676 1008.654114,492.303864 1017.110046,489.403076 
	C1021.906189,487.757782 1026.360962,484.951843 1030.744263,482.296722 
	C1051.461670,469.747437 1066.434692,451.563049 1079.799194,431.842590 
	C1090.967407,415.363281 1102.913818,399.585846 1120.243774,388.970093 
	C1127.257080,384.673920 1134.759888,381.483917 1143.321411,382.808990 
	C1144.908447,383.054596 1146.713745,383.597198 1147.859375,384.625427 
	C1150.102295,386.638580 1152.026245,387.060089 1154.929565,385.781372 
	C1158.503174,384.207458 1161.376099,386.266022 1161.215698,390.139465 
	C1161.108276,392.736359 1160.282837,395.354004 1159.471802,397.863190 
	C1154.480591,413.304840 1150.820435,428.971039 1151.041748,445.333313 
	C1151.055298,446.333130 1151.009033,447.337280 1151.084961,448.332214 
	C1152.476807,466.564514 1161.846313,472.826416 1179.857422,466.144684 
	C1194.469116,460.724152 1207.165161,451.425262 1218.095215,440.321625 
	C1223.256226,435.078644 1227.000244,428.365356 1231.009644,422.078003 
	C1245.414795,399.488892 1259.595703,376.756531 1274.040771,354.193176 
	C1275.959473,351.196136 1278.581421,348.401398 1281.463623,346.327454 
	C1285.725342,343.261017 1290.673584,346.020782 1290.213745,351.272095 
	C1289.293701,361.782806 1285.127808,370.763062 1276.233276,377.111816 
	C1274.661377,378.233765 1273.102905,379.593689 1272.043823,381.181000 
	C1259.487671,400.000000 1247.015991,418.875458 1234.552856,437.756439 
	C1232.338257,441.111572 1230.265137,444.560150 1228.126709,447.965576 
	C1228.537109,448.315826 1228.947510,448.666107 1229.358032,449.016357 
	C1230.874146,447.729431 1232.424927,446.481079 1233.901001,445.149841 
	C1252.945068,427.975464 1271.703247,410.468445 1291.169556,393.787476 
	C1297.612915,388.265991 1305.742065,384.615753 1313.362915,380.608887 
	C1316.680054,378.864807 1321.479126,377.438934 1323.929077,381.102753 
	C1325.753906,383.831818 1326.133423,388.394592 1325.404785,391.761627 
	C1324.297363,396.879669 1321.854004,401.751923 1319.659302,406.583679 
	C1311.341675,424.893951 1302.867676,443.133209 1294.537598,461.437866 
	C1293.620483,463.453156 1293.251831,465.718079 1292.628784,467.867218 
	C1293.064819,468.289886 1293.500854,468.712585 1293.936890,469.135254 
	C1298.757935,465.887726 1303.800659,462.922852 1308.361206,459.343597 
	C1327.882446,444.022552 1347.168213,428.400482 1366.749634,413.157715 
	C1372.628052,408.581757 1379.059082,404.667084 1385.465942,400.831787 
	C1392.932251,396.362213 1401.473999,400.750671 1400.805420,409.369843 
	C1399.988403,419.901825 1397.686890,430.357849 1395.492798,440.733673 
	C1392.911621,452.939850 1389.243164,464.983734 1390.957764,477.666534 
	C1391.466309,481.428375 1392.320923,485.216064 1393.592285,488.787079 
	C1396.242310,496.230194 1399.846191,498.266296 1407.007446,494.757080 
	C1415.464722,490.612854 1424.213379,486.188477 1431.151978,479.998199 
	C1446.781250,466.054657 1461.383057,450.958344 1476.377075,436.304810 
	C1479.355957,433.393738 1482.255005,430.398438 1485.123657,427.378235 
	C1486.918457,425.488586 1489.174316,424.053284 1490.987305,426.482269 
	C1492.228394,428.145020 1492.836060,431.077911 1492.300903,433.057465 
	C1491.697388,435.289520 1489.706421,437.302246 1487.954468,439.043701 
	C1472.826660,454.079926 1458.082642,469.552032 1442.236206,483.794922 
	C1434.188721,491.028168 1424.587280,496.964508 1414.847412,501.789703 
	C1396.697144,510.781525 1384.807617,503.395538 1381.909790,483.216888 
	C1379.620850,467.279114 1382.662842,452.067139 1386.390137,436.816772 
	C1387.850952,430.839600 1389.369507,424.870300 1390.579102,418.840729 
	C1391.144653,416.021881 1391.038208,413.068237 1391.356445,408.421509 
	C1384.883057,412.510712 1379.437500,415.340759 1374.686279,419.058136 
	C1354.747559,434.658081 1335.119873,450.656067 1315.143555,466.206879 
	C1309.531494,470.575684 1303.229858,474.110107 1297.032471,477.656677 
	C1293.253784,479.819122 1288.914917,480.205475 1285.233032,477.416840 
	C1281.213013,474.372040 1281.890747,469.769653 1283.288208,465.905457 
	C1286.333740,457.483765 1289.822388,449.205383 1293.484741,441.027313 
	C1300.210571,426.008087 1307.203003,411.108276 1314.054443,396.144989 
	C1314.863770,394.377594 1315.485107,392.524200 1316.708008,389.394043 
	C1313.821411,390.538666 1312.027588,391.053131 1310.421753,391.917053 
	C1294.665405,400.394684 1282.066406,412.876984 1269.325684,425.047485 
	C1246.792725,446.571838 1224.708130,468.564850 1202.323608,490.245850 
	C1198.029785,494.404724 1193.331543,498.174988 1188.600342,501.841156 
	C1186.226685,503.680511 1183.274658,505.176788 1180.496582,502.381927 
	C1177.710327,499.578827 1179.308594,496.824585 1181.116333,494.312500 
	C1186.464722,486.879547 1191.894653,479.505310 1197.277466,472.097137 
	C1198.425781,470.516693 1199.510132,468.889618 1199.935547,466.337067 
	C1198.372803,467.275299 1196.746338,468.122772 1195.258057,469.167175 
	C1187.864014,474.356018 1179.688354,477.200897 1170.673462,477.907227 
	C1155.158081,479.122894 1144.969116,470.665741 1142.070435,453.680817 
	C1141.402222,449.765900 1141.366455,445.730438 1141.214355,441.743805 
	C1141.077026,438.148499 1141.692383,434.540314 1138.560791,431.569397 
	C1137.647827,430.703278 1137.623535,428.393463 1137.904419,426.877380 
	C1138.568359,423.293640 1139.660034,419.789185 1140.745605,415.620056 
	C1140.838867,414.717529 1140.765259,414.447601 1140.691650,414.177704 
	C1140.391724,414.381561 1140.091675,414.585449 1139.791748,414.789307 
M1122.445801,422.945312 
	C1129.013428,414.615295 1135.646118,406.334778 1142.068604,397.894409 
	C1142.898804,396.803497 1143.338867,394.013977 1142.740234,393.534851 
	C1141.560425,392.590698 1139.242188,391.994720 1137.893799,392.524689 
	C1132.517700,394.637695 1126.667480,396.372162 1122.193115,399.809174 
	C1102.585815,414.870483 1087.461182,433.578491 1078.581909,456.917328 
	C1077.887207,458.743378 1077.894165,460.836456 1077.575073,462.805420 
	C1078.079590,463.168976 1078.583984,463.532562 1079.088501,463.896118 
	C1084.037476,460.139191 1089.434082,456.840271 1093.843872,452.531494 
	C1103.482422,443.113708 1112.619629,433.182922 1122.445801,422.945312 
M1228.000000,450.500000 
	C1227.800049,450.366669 1227.599976,450.233337 1227.400024,450.100006 
	C1227.433350,450.399994 1227.466675,450.700012 1228.000000,450.500000 
z"/>
<path fill="#194E94" opacity="1.000000" stroke="none" 
	d="
M526.546509,382.520752 
	C512.718445,394.516296 499.231018,406.934875 484.982269,418.407959 
	C463.714294,435.532928 441.958313,452.054932 420.279388,468.663055 
	C417.159485,471.053223 413.387146,472.656128 409.780396,474.329559 
	C405.629395,476.255524 401.248901,476.753571 397.684906,473.268097 
	C394.192413,469.852539 395.049805,465.506012 396.647217,461.570679 
	C398.892944,456.038239 401.571289,450.680725 404.091980,445.261108 
	C404.713165,443.925537 405.439941,442.639069 406.679626,440.246460 
	C385.813934,445.585052 367.408295,444.545929 354.787445,424.426727 
	C346.557739,434.955292 339.083496,445.309204 330.735199,454.902557 
	C325.671112,460.721954 319.722473,466.066132 313.313751,470.337097 
	C307.050415,474.511169 301.647095,470.864258 302.115875,463.220398 
	C302.467499,457.486633 303.955597,451.822540 305.104401,445.160706 
	C300.636505,447.530945 296.704529,449.461609 292.922272,451.650940 
	C278.471313,460.015717 263.438690,467.056213 247.270065,471.383514 
	C238.385010,473.761414 229.353058,475.210938 220.130722,473.115387 
	C207.664459,470.282684 200.658478,460.728882 203.712494,448.354980 
	C205.954376,439.271606 209.703506,430.401123 213.929245,422.014343 
	C217.645950,414.637848 222.922501,408.041443 227.592010,401.156006 
	C228.516449,399.792847 229.610306,398.044983 230.986237,397.607513 
	C232.935104,396.987915 235.491241,396.834686 237.243958,397.650543 
	C238.121078,398.058807 238.600479,401.512939 237.870132,402.802338 
	C234.767441,408.280182 231.591339,413.829895 227.616318,418.676025 
	C219.891953,428.093170 215.225098,438.752411 213.443954,450.630524 
	C212.221619,458.782227 216.205795,463.170868 224.399582,463.883179 
	C232.485870,464.586151 240.508514,464.102814 247.907639,460.687286 
	C267.808929,451.500549 287.589661,442.050323 307.332550,432.527008 
	C308.897430,431.772156 310.131653,429.807251 310.949890,428.127258 
	C313.422546,423.050354 315.488190,417.774719 317.977570,412.706757 
	C318.978760,410.668488 320.324097,408.419281 322.146240,407.274078 
	C323.873322,406.188690 326.784180,405.581055 328.519989,406.313751 
	C330.230682,407.035828 332.303802,409.791718 332.175415,411.501862 
	C331.424713,421.499451 328.709930,430.773804 322.326172,439.024902 
	C318.687897,443.727539 316.697876,449.705383 313.965668,455.108978 
	C314.410126,455.450531 314.854584,455.792053 315.299042,456.133575 
	C316.611755,454.925110 318.121094,453.870575 319.206573,452.484161 
	C329.261749,439.640808 339.118500,426.639008 349.362305,413.949188 
	C351.215912,411.652954 354.648285,409.209961 357.207275,409.356598 
	C359.234589,409.472748 361.854340,413.154724 362.803253,415.765106 
	C366.805420,426.774414 376.752167,433.718536 389.174927,432.368195 
	C396.876801,431.530975 404.485657,429.466614 411.991577,427.421814 
	C414.289581,426.795807 416.569580,424.757477 418.071289,422.771210 
	C428.515533,408.956940 438.612885,394.878906 449.145050,381.133423 
	C452.139648,377.225189 455.805878,373.498077 459.932526,370.915985 
	C462.400757,369.371613 466.905212,369.097687 469.464508,370.352783 
	C471.289062,371.247559 472.585419,375.876434 472.072266,378.427612 
	C469.665222,390.394958 462.680389,399.902191 454.187866,408.351349 
	C453.350433,409.184570 451.531036,409.949219 450.587799,409.602386 
	C445.933105,407.890869 443.925964,411.014252 441.742371,413.963501 
	C431.745941,427.465027 421.705750,440.934845 411.817688,454.515350 
	C409.980652,457.038361 408.770508,460.017822 407.921875,463.776276 
	C409.514740,462.985992 411.285919,462.429352 412.673584,461.370270 
	C431.727478,446.827606 451.088287,432.656403 469.647827,417.504761 
	C490.926239,400.133514 511.493561,381.890503 532.339294,363.990631 
	C535.242432,361.497742 538.401611,359.047150 542.110962,361.426514 
	C546.089050,363.978271 546.152344,368.166595 544.274048,372.137543 
	C537.379822,386.713135 530.526123,401.312500 523.327393,415.738403 
	C513.156555,436.120270 502.687500,456.353333 492.366486,476.660431 
	C491.714508,477.943268 491.239868,479.316193 490.286011,481.594971 
	C492.007874,480.923523 492.866516,480.696777 493.619507,480.279388 
	C524.458313,463.185638 555.279236,446.059418 586.130920,428.988953 
	C589.326355,427.220886 592.660156,425.686493 595.998840,424.198700 
	C599.194092,422.774841 602.893433,421.746368 604.705811,425.691895 
	C606.622498,429.864685 602.872314,431.605072 599.901978,433.049072 
	C588.691040,438.498901 577.110535,443.261871 566.215698,449.273865 
	C540.739990,463.332092 515.602600,478.002533 490.276367,492.333344 
	C484.684937,495.497284 480.953766,500.019165 478.094055,505.726898 
	C453.218842,555.375244 428.536652,605.117065 399.917908,652.791870 
	C357.676910,723.159363 307.521759,787.191162 248.282211,844.056152 
	C232.466156,859.238159 215.345825,872.759705 195.926865,882.948730 
	C189.968643,886.075012 182.741653,887.957397 176.020386,888.184937 
	C165.451492,888.542725 159.275650,882.198364 156.983124,871.350586 
	C154.110382,857.757385 157.645905,844.802795 161.543884,832.099243 
	C169.654938,805.665222 182.554672,781.469360 197.815277,758.526794 
	C234.658936,703.136658 279.542511,654.668274 327.431824,608.850525 
	C370.734070,567.421387 416.986786,529.651123 467.336426,496.994720 
	C471.104675,494.550720 474.887482,491.017853 476.857025,487.086212 
	C493.978241,452.908691 510.686340,418.524261 527.743896,383.580261 
	C527.495850,382.813049 527.021179,382.666901 526.546509,382.520752 
M342.581116,606.070129 
	C325.371155,623.254822 307.768005,640.066406 291.034149,657.702820 
	C257.515411,693.029480 225.974060,730.007141 200.626312,771.826660 
	C187.937744,792.760803 176.152679,814.165649 169.661606,838.005493 
	C166.766968,848.636658 164.252869,859.388367 166.787216,870.472290 
	C168.286621,877.029968 171.771652,880.036438 178.258133,878.711426 
	C185.132111,877.307312 192.533081,875.467834 198.165817,871.586487 
	C213.064377,861.320251 228.060532,850.861755 241.366241,838.676392 
	C295.019958,789.539978 339.101685,732.381226 378.345093,671.392456 
	C410.614166,621.242554 437.076721,567.887634 463.752655,514.669006 
	C464.475067,513.227844 464.791077,511.583069 465.583191,509.154541 
	C443.815216,522.739075 385.909119,565.152466 342.581116,606.070129 
z"/>
<path fill="#1A4E94" opacity="1.000000" stroke="none" 
	d="
M889.716003,437.715820 
	C851.476135,476.206299 806.981262,505.671814 761.018127,533.149963 
	C755.740356,536.305176 750.365051,539.298523 745.007568,542.318237 
	C743.857056,542.966736 742.633545,543.582947 741.365234,543.908569 
	C735.301025,545.465637 733.182434,543.897522 732.783264,537.085144 
	C731.777893,538.190735 730.918213,538.867432 730.398987,539.745361 
	C688.913818,609.899170 649.227844,681.017029 616.626221,755.828491 
	C611.552917,767.470276 608.515625,780.004150 604.650879,792.161804 
	C604.161499,793.701477 604.327576,795.460999 604.261902,797.121521 
	C604.136108,800.304993 605.544800,801.785645 608.839478,801.209656 
	C610.312195,800.952148 611.951904,800.390686 613.260315,800.794739 
	C614.660583,801.227173 616.241638,802.421448 616.804504,803.697510 
	C617.126099,804.426636 615.854675,806.380127 614.824036,807.102173 
	C605.773254,813.443420 596.061035,809.122498 595.708740,798.105896 
	C595.533142,792.614929 597.145203,786.934814 598.668823,781.543762 
	C606.395569,754.204651 619.140625,728.961731 631.629089,703.618225 
	C664.804016,636.294739 702.855652,571.671326 740.535706,506.841766 
	C754.489868,482.833191 768.452820,458.829651 782.388489,434.810303 
	C783.555176,432.799438 784.656433,430.734619 785.588318,428.607361 
	C786.967590,425.458557 788.093262,422.743805 783.458496,420.595947 
	C779.013489,418.536102 778.672791,413.432129 782.716370,409.737854 
	C786.969360,405.852325 791.584229,402.034760 796.691101,399.494019 
	C803.267761,396.222015 808.076050,391.649567 811.782715,385.505981 
	C818.140625,374.968170 824.625488,364.506805 831.086731,354.031647 
	C831.957825,352.619385 832.716736,350.697357 834.026672,350.093018 
	C836.366211,349.013733 839.437073,347.703369 841.564087,348.410095 
	C844.669067,349.441803 844.766357,352.899780 843.347046,355.679199 
	C839.266968,363.669495 834.986816,371.557526 830.793274,379.489990 
	C830.037659,380.919342 829.320496,382.369019 827.940186,385.074097 
	C833.768250,383.700134 838.344727,382.490753 842.976318,381.553955 
	C856.491272,378.820404 869.948120,375.583313 883.591980,373.799927 
	C889.932922,372.971100 896.872559,374.253632 903.155518,375.980713 
	C915.099121,379.263794 919.469788,388.638184 915.545349,400.446686 
	C910.617920,415.273468 900.756042,426.690460 889.716003,437.715820 
M904.922241,387.572906 
	C897.787231,383.181488 889.875244,383.605255 882.117493,384.419250 
	C861.500671,386.582458 841.524597,391.649841 822.330017,399.423492 
	C818.548523,400.954987 814.856689,404.064392 812.464233,407.405975 
	C806.188477,416.171631 800.510437,425.379486 794.847900,434.567444 
	C774.694092,467.268616 754.641846,500.032410 734.571655,532.785095 
	C733.715942,534.181458 733.064087,535.702698 731.692993,538.388672 
	C738.095032,535.261169 743.274231,533.287476 747.871948,530.390808 
	C770.236816,516.300293 792.813599,502.499084 814.608398,487.563782 
	C836.998474,472.220612 858.332825,455.383575 877.499146,436.025177 
	C887.841919,425.578705 897.209045,414.326630 903.993286,401.173492 
	C906.098877,397.091248 908.666687,392.870850 904.922241,387.572906 
z"/>
<path fill="#194E93" opacity="1.000000" stroke="none" 
	d="
M261.477173,349.699463 
	C267.850311,350.423126 269.969177,353.582581 267.174255,358.602600 
	C264.951630,362.594696 262.117767,366.361084 258.990814,369.698853 
	C256.484497,372.374176 252.556870,370.740021 251.907761,367.197479 
	C250.936264,361.895294 255.963257,352.399445 261.477173,349.699463 
z"/>
<path fill="#FBFCFD" opacity="1.000000" stroke="none" 
	d="
M1122.203735,423.203552 
	C1112.619629,433.182922 1103.482422,443.113708 1093.843872,452.531494 
	C1089.434082,456.840271 1084.037476,460.139191 1079.088501,463.896118 
	C1078.583984,463.532562 1078.079590,463.168976 1077.575073,462.805420 
	C1077.894165,460.836456 1077.887207,458.743378 1078.581909,456.917328 
	C1087.461182,433.578491 1102.585815,414.870483 1122.193115,399.809174 
	C1126.667480,396.372162 1132.517700,394.637695 1137.893799,392.524689 
	C1139.242188,391.994720 1141.560425,392.590698 1142.740234,393.534851 
	C1143.338867,394.013977 1142.898804,396.803497 1142.068604,397.894409 
	C1135.646118,406.334778 1129.013428,414.615295 1122.203735,423.203552 
z"/>
<path fill="#FFFFFF" opacity="1.000000" stroke="none" 
	d="
M1139.999512,414.976349 
	C1140.091675,414.585449 1140.391724,414.381561 1140.691650,414.177704 
	C1140.765259,414.447601 1140.838867,414.717529 1140.786255,415.239777 
	C1140.509155,415.382538 1140.358276,415.272980 1139.999512,414.976349 
z"/>
<path fill="#FFFFFF" opacity="1.000000" stroke="none" 
	d="
M1227.750000,450.750000 
	C1227.466675,450.700012 1227.433350,450.399994 1227.400024,450.100006 
	C1227.599976,450.233337 1227.800049,450.366669 1227.750000,450.750000 
z"/>
<path fill="#FEFEFF" opacity="1.000000" stroke="none" 
	d="
M342.843140,605.831055 
	C385.909119,565.152466 443.815216,522.739075 465.583191,509.154541 
	C464.791077,511.583069 464.475067,513.227844 463.752655,514.669006 
	C437.076721,567.887634 410.614166,621.242554 378.345093,671.392456 
	C339.101685,732.381226 295.019958,789.539978 241.366241,838.676392 
	C228.060532,850.861755 213.064377,861.320251 198.165817,871.586487 
	C192.533081,875.467834 185.132111,877.307312 178.258133,878.711426 
	C171.771652,880.036438 168.286621,877.029968 166.787216,870.472290 
	C164.252869,859.388367 166.766968,848.636658 169.661606,838.005493 
	C176.152679,814.165649 187.937744,792.760803 200.626312,771.826660 
	C225.974060,730.007141 257.515411,693.029480 291.034149,657.702820 
	C307.768005,640.066406 325.371155,623.254822 342.843140,605.831055 
z"/>
<path fill="#FFFFFF" opacity="1.000000" stroke="none" 
	d="
M526.820923,382.778656 
	C527.021179,382.666901 527.495850,382.813049 527.830994,383.228149 
	C527.492798,383.343597 527.294067,383.190094 526.820923,382.778656 
z"/>
<path fill="#FFFFFF" opacity="1.000000" stroke="none" 
	d="
M905.223877,387.830383 
	C908.666687,392.870850 906.098877,397.091248 903.993286,401.173492 
	C897.209045,414.326630 887.841919,425.578705 877.499146,436.025177 
	C858.332825,455.383575 836.998474,472.220612 814.608398,487.563782 
	C792.813599,502.499084 770.236816,516.300293 747.871948,530.390808 
	C743.274231,533.287476 738.095032,535.261169 731.692993,538.388672 
	C733.064087,535.702698 733.715942,534.181458 734.571655,532.785095 
	C754.641846,500.032410 774.694092,467.268616 794.847900,434.567444 
	C800.510437,425.379486 806.188477,416.171631 812.464233,407.405975 
	C814.856689,404.064392 818.548523,400.954987 822.330017,399.423492 
	C841.524597,391.649841 861.500671,386.582458 882.117493,384.419250 
	C889.875244,383.605255 897.787231,383.181488 905.223877,387.830383 
z"/>
</svg>